<svg xmlns="http://www.w3.org/2000/svg" width="14.806" height="14.806" viewBox="0 0 14.806 14.806"><defs><style>.a{fill:#1a3677;}</style></defs><path class="a" d="M7.4,0a7.4,7.4,0,1,0,7.4,7.4A7.411,7.411,0,0,0,7.4,0Zm0,11.721A.617.617,0,1,1,8.02,11.1.617.617,0,0,1,7.4,11.721ZM8.38,7.8a.62.62,0,0,0-.36.561v.277a.617.617,0,0,1-1.234,0V8.36A1.859,1.859,0,0,1,7.863,6.678,2.016,2.016,0,0,0,8.945,5.244a1.542,1.542,0,1,0-3.085,0,.617.617,0,0,1-1.234,0,2.776,2.776,0,1,1,5.552,0A3.215,3.215,0,0,1,8.38,7.8Z"/></svg>