<svg xmlns="http://www.w3.org/2000/svg" width="18.847" height="17.397" viewBox="0 0 18.847 17.397"><defs><style>.a{fill:#022169;}</style></defs><g transform="translate(-114 -112.07)"><g transform="translate(114 112.07)"><g transform="translate(0 0)"><path class="a" d="M132.122,122.218h-17.4a.724.724,0,0,0-.725.725v2.9a3.629,3.629,0,0,0,3.624,3.624h11.6a3.629,3.629,0,0,0,3.624-3.624v-2.9a.724.724,0,0,0-.725-.725ZM119.8,117.869h8.7a1.45,1.45,0,1,0,0-2.9h-6.524a.725.725,0,0,1,0-1.45.725.725,0,1,0,0-1.45H119.8a2.9,2.9,0,1,0,0,5.8Zm11.6,2.175a.724.724,0,0,0-.725-.725h-14.5a.724.724,0,0,0-.725.725v.725H131.4v-.725Z" transform="translate(-114 -112.07)"/></g></g></g></svg>