<svg xmlns="http://www.w3.org/2000/svg" width="14.314" height="17.345" viewBox="0 0 14.314 17.345"><defs><style>.a{fill:#022169;}</style></defs><g transform="translate(-2.511 0)"><path class="a" d="M15.083,12.706a15.7,15.7,0,0,1,1.083,2.346c.475,1.272.306,2.451-.846,2.276-1.132-.171.435-1.335.058-2.276A3.857,3.857,0,0,0,14,13.085c-1.652.258-5.048.45-7.264-1.74-3.02-2.986-1.1-7.479-4.22-9.573C7.589-1.521,13.525.194,15.727,3.5c2.1,3.155.69,6.754-.148,8.358,0,0-4.044-6.382-6.034-6.965C11.911,7.193,15.083,12.706,15.083,12.706Z" transform="translate(0 0)"/></g></svg>