<svg xmlns="http://www.w3.org/2000/svg" width="32.181" height="26.187" viewBox="0 0 32.181 26.187"><defs><style>.a{fill:#fff;}</style></defs><g transform="translate(0 -9.204)"><g transform="translate(0 9.204)"><path class="a" d="M66.5,19.754C64.787,13.641,60.571,9.2,56.472,9.2a5.632,5.632,0,0,0-.978.085.65.65,0,0,0-.515.816l.844,3.018a.658.658,0,0,0,.654.475h.067c1.52,0,4.3,2.278,5.714,7.341.056.2.109.406.16.621a7.4,7.4,0,0,0-5.2-.49,7.295,7.295,0,1,0,3.929,14.051c2.555-.714,4.476-2.835,5.409-5.971A17.431,17.431,0,0,0,66.5,19.754Z" transform="translate(-34.99 -9.204)"/><path class="a" d="M4.588,9.206a5.627,5.627,0,0,0-.978.085.65.65,0,0,0-.515.816l.844,3.018a.654.654,0,0,0,.654.475H4.66c1.52,0,4.3,2.278,5.714,7.341.056.2.109.408.16.621a7.4,7.4,0,0,0-5.2-.49,7.295,7.295,0,1,0,3.93,14.051c2.554-.714,4.475-2.835,5.409-5.971a17.434,17.434,0,0,0-.057-9.395C12.9,13.643,8.687,9.206,4.588,9.206Z" transform="translate(0 -9.205)"/></g></g></svg>