<svg xmlns="http://www.w3.org/2000/svg" width="13.419" height="15.904" viewBox="0 0 13.419 15.904"><defs><style>.a{fill:#fff;}</style></defs><path class="a" d="M52.8,3.728H50.9a4.225,4.225,0,0,0-8.39,0H40.621A.621.621,0,0,0,40,4.349V15.283a.621.621,0,0,0,.621.621H52.8a.621.621,0,0,0,.621-.621V4.349A.621.621,0,0,0,52.8,3.728ZM46.71,1.243a2.987,2.987,0,0,1,2.94,2.485H43.769A2.987,2.987,0,0,1,46.71,1.243Zm5.467,13.419H41.243V4.97h1.243V6.834a.621.621,0,0,0,1.243,0V4.97h5.964V6.834a.621.621,0,0,0,1.243,0V4.97h1.243Z" transform="translate(-40)"/></svg>