<svg xmlns="http://www.w3.org/2000/svg" width="17.125" height="17.397" viewBox="0 0 17.125 17.397"><defs><style>.a{opacity:0.9;}.b{fill:#022169;}</style></defs><g class="a" transform="translate(0 -0.004)"><g transform="translate(0 0.004)"><path class="b" d="M260.98,2.062C260.233.988,259.475.107,259.468.1a.272.272,0,0,0-.412,0c-.008.009-.765.89-1.512,1.964A7.006,7.006,0,0,0,256,5.41a3.262,3.262,0,1,0,6.524,0,7.005,7.005,0,0,0-1.544-3.348Zm-1.718,5.553a.272.272,0,1,1,.272-.272A.272.272,0,0,1,259.262,7.615Zm1.245-.4a.272.272,0,0,1-.315-.443,1.673,1.673,0,0,0,.7-1.364.272.272,0,1,1,.544,0,2.218,2.218,0,0,1-.93,1.807Z" transform="translate(-247.301 -0.004)"/><path class="b" d="M292.677,379.96l-.009-.018a1.575,1.575,0,0,0-2.14-.65l-2.329,1.242-.047.023-2.876,1.307,5.446,1.743a.272.272,0,0,0,.326-.137,1.326,1.326,0,0,0-.767-1.851l-.009,0-1.4-.412,3.623-.852a.271.271,0,0,0,.179-.391Z" transform="translate(-275.583 -366.223)"/><path class="b" d="M12.36,249.981l4.077-2.175a.272.272,0,0,0,.142-.274.278.278,0,0,0-.055-.133l-.015-.019a1.722,1.722,0,0,0-2.52-.2c-.881.807-2.586,2.36-2.586,2.36a.819.819,0,0,1-.354.177l-2.317.257a.276.276,0,0,1-.07-.548c.763-.111,2.357-.273,2.387-.3l3.005-2.732a.272.272,0,0,0,0-.384,1.427,1.427,0,0,0-2-.017l-1.834,1.31-.7.116c-.894-.756-1.91-1.615-2.015-1.7a5.739,5.739,0,0,0-3.121-1.232,8.685,8.685,0,0,0-3.383.372H1l-.815.267a.272.272,0,0,0-.187.258v2.99a.272.272,0,0,0,.272.272h1.57s5.729,2.718,5.77,2.718H9.355l2.992-1.384Z" transform="translate(0 -236.15)"/></g></g></svg>